<mxfile host="app.diagrams.net" modified="2023-08-30T23:04:42.658Z" agent="Mozilla/5.0 (Windows NT 10.0; Win64; x64) AppleWebKit/537.36 (KHTML, like Gecko) Chrome/116.0.0.0 Safari/537.36" version="21.7.1" etag="3u_SSi1axc0eWJBvxcxL" type="github">
  <diagram name="Page-1" id="AiKHG9SwwVXDcijCUf34">
    <mxGraphModel>
      <root>
        <mxCell id="0" />
        <mxCell id="1" parent="0" />
      </root>
    </mxGraphModel>
  </diagram>
</mxfile>
